#define desk_width 6
#define desk_height 6
static unsigned char desk_bits[] = {
   0x00, 0x1e, 0x12, 0x12, 0x1e, 0x00 };
