#define bullet_width 5
#define bullet_height 10
static unsigned char bullet_bits[] = {
   0x00, 0x00, 0x00, 0x0e, 0x00, 0x0e, 0x00, 0x0e, 0x00, 0x00 };
