#define bullet_width 7
#define bullet_height 10
static unsigned char bullet_bits[] = {
   0x00, 0x00, 0x08, 0x18, 0x3f, 0x60, 0x3f, 0x18, 0x08, 0x00 };
