#define desk_width 11
#define desk_height 11
static unsigned char desk_bits[] = {
   0x00, 0x00, 0xde, 0x03, 0x8a, 0x02, 0xde, 0x03, 0x8a, 0x02, 0x00, 0x00,
   0x8a, 0x02, 0xde, 0x03, 0x8a, 0x02, 0xde, 0x03, 0x00, 0x00 };
