#define shade_toggled_width 9
#define shade_toggled_height 9
static unsigned char shade_toggled_bits[] = {
   0x00, 0x00, 0x08, 0x00, 0x08, 0x00, 0x0e, 0x00, 0x00, 0x00, 0xe0, 0x00,
   0x20, 0x00, 0x20, 0x00, 0x00, 0x00 };
