#define close_width 9
#define close_height 9
static unsigned char close_bits[] = {
   0x00, 0x00, 0x28, 0x00, 0x28, 0x00, 0xee, 0x00, 0x00, 0x00, 0xee, 0x00,
   0x28, 0x00, 0x28, 0x00, 0x00, 0x00 };
