#define iconify_width 10
#define iconify_height 10
static unsigned char iconify_bits[] = {
   0x00, 0x00, 0x40, 0x00, 0x40, 0x00, 0xd0, 0x01, 0x10, 0x00, 0x74, 0x00,
   0x04, 0x00, 0x1c, 0x00, 0x00, 0x00, 0x00, 0x00 };
