#define max_width 10
#define max_height 10
static unsigned char max_bits[] = {
   0x00, 0x00, 0x00, 0x00, 0xe0, 0x00, 0x80, 0x00, 0xb8, 0x00, 0x20, 0x00,
   0x2e, 0x00, 0x08, 0x00, 0x08, 0x00, 0x00, 0x00 };
