#define bullet2_width 11
#define bullet2_height 11
static unsigned char bullet2_bits[] = {
   0x00, 0x00, 0xfc, 0x01, 0xfc, 0x03, 0xdc, 0x03, 0x9c, 0x03, 0x1c, 0x03,
   0x9c, 0x03, 0xdc, 0x03, 0xfc, 0x03, 0xfc, 0x01, 0x00, 0x00 };
