#define close_width 11
#define close_height 11
static unsigned char close_bits[] = {
   0x00, 0x00, 0xf8, 0x00, 0xf8, 0x00, 0x76, 0x03, 0x8e, 0x03, 0xae, 0x03,
   0x8e, 0x03, 0x76, 0x03, 0xf8, 0x00, 0xf8, 0x00, 0x00, 0x00 };
