#define desk_width 11
#define desk_height 11
static unsigned char desk_bits[] = {
   0x00, 0x00, 0xfc, 0x01, 0xfe, 0x03, 0xde, 0x03, 0x8e, 0x03, 0x26, 0x03,
   0x8e, 0x03, 0xde, 0x03, 0xfe, 0x03, 0xfc, 0x01, 0x00, 0x00 };
