#define iconify_hover_width 11
#define iconify_hover_height 11
static unsigned char iconify_hover_bits[] = {
   0x00, 0x00, 0xfc, 0x01, 0xfe, 0x03, 0xfe, 0x03, 0xfe, 0x03, 0xfe, 0x03,
   0x06, 0x03, 0xfe, 0x03, 0xfe, 0x03, 0xfc, 0x01, 0x00, 0x00 };
