#define max_hover_width 11
#define max_hover_height 11
static unsigned char max_hover_bits[] = {
   0x00, 0x00, 0xfc, 0x01, 0xfe, 0x03, 0x1e, 0x03, 0x7e, 0x03, 0x46, 0x03,
   0xde, 0x03, 0xde, 0x03, 0xfe, 0x03, 0xfc, 0x01, 0x00, 0x00 };
