#define max_toggled_hover_width 11
#define max_toggled_hover_height 11
static unsigned char max_toggled_hover_bits[] = {
   0x00, 0x00, 0xfc, 0x01, 0xfe, 0x03, 0xde, 0x03, 0xde, 0x03, 0x16, 0x03,
   0xf6, 0x03, 0xc6, 0x03, 0xfe, 0x03, 0xfc, 0x01, 0x00, 0x00 };
