#define bullet2_width 7
#define bullet2_height 10
static unsigned char bullet2_bits[] = {
   0x00, 0x00, 0x00, 0x10, 0x3e, 0x3e, 0x10, 0x00, 0x00, 0x00 };
