#define close_width 7
#define close_height 10
static unsigned char close_bits[] = {
   0x00, 0x3e, 0x3e, 0x3e, 0x3e, 0x3e, 0x3e, 0x3e, 0x3e, 0x00 };
