#define max_hover_width 7
#define max_hover_height 10
static unsigned char max_hover_bits[] = {
   0x00, 0x00, 0x08, 0x1c, 0x3e, 0x3e, 0x1c, 0x08, 0x00, 0x00 };
