#define desk_hover_width 7
#define desk_hover_height 10
static unsigned char desk_hover_bits[] = {
   0x00, 0x3e, 0x3e, 0x00, 0x00, 0x00, 0x00, 0x3e, 0x3e, 0x00 };
