#define iconify_hover_width 7
#define iconify_hover_height 10
static unsigned char iconify_hover_bits[] = {
   0x00, 0x00, 0x00, 0x00, 0x22, 0x36, 0x3e, 0x1c, 0x08, 0x00 };
