#define close_hover_width 7
#define close_hover_height 10
static unsigned char close_hover_bits[] = {
   0x00, 0x08, 0x1c, 0x3e, 0x36, 0x22, 0x00, 0x00, 0x00, 0x00 };
