#define close_width 11
#define close_height 11
static unsigned char close_bits[] = {
   0x00, 0x00, 0x00, 0x00, 0x00, 0x00, 0x04, 0x01, 0xd8, 0x00, 0x70, 0x00,
   0x70, 0x00, 0xd8, 0x00, 0x04, 0x01, 0x00, 0x00, 0x00, 0x00 };
